<mxfile host="app.diagrams.net" modified="2021-01-04T06:03:55.053Z" agent="5.0 (Macintosh; Intel Mac OS X 11_1_0) AppleWebKit/537.36 (KHTML, like Gecko) Chrome/87.0.4280.88 Safari/537.36" etag="QpacPFHh7q0dJvOiY9Wp" version="14.1.8" type="github">
  <diagram id="N39efjuvj9uV7_tdD0Wl" name="Page-1">
    <mxGraphModel dx="2066" dy="1071" grid="1" gridSize="10" guides="1" tooltips="1" connect="1" arrows="1" fold="1" page="1" pageScale="1" pageWidth="827" pageHeight="1169" math="0" shadow="0">
      <root>
        <mxCell id="0" />
        <mxCell id="1" parent="0" />
        <mxCell id="uSJiySgHFmY00MwDGNhw-18" value="" style="rounded=1;whiteSpace=wrap;html=1;" vertex="1" parent="1">
          <mxGeometry x="340" y="600" width="162" height="160" as="geometry" />
        </mxCell>
        <mxCell id="uSJiySgHFmY00MwDGNhw-1" value="db" style="shape=cylinder3;whiteSpace=wrap;html=1;boundedLbl=1;backgroundOutline=1;size=15;" vertex="1" parent="1">
          <mxGeometry x="432" y="650" width="60" height="80" as="geometry" />
        </mxCell>
        <mxCell id="uSJiySgHFmY00MwDGNhw-2" value="redis" style="shape=cylinder3;whiteSpace=wrap;html=1;boundedLbl=1;backgroundOutline=1;size=15;" vertex="1" parent="1">
          <mxGeometry x="352" y="650" width="60" height="80" as="geometry" />
        </mxCell>
        <mxCell id="uSJiySgHFmY00MwDGNhw-3" value="" style="rounded=1;whiteSpace=wrap;html=1;" vertex="1" parent="1">
          <mxGeometry x="490" y="365" width="200" height="120" as="geometry" />
        </mxCell>
        <mxCell id="uSJiySgHFmY00MwDGNhw-4" value="admin-services" style="text;html=1;strokeColor=none;fillColor=none;align=center;verticalAlign=middle;whiteSpace=wrap;rounded=0;" vertex="1" parent="1">
          <mxGeometry x="530" y="375" width="120" height="20" as="geometry" />
        </mxCell>
        <mxCell id="uSJiySgHFmY00MwDGNhw-5" value="bus-points&lt;br&gt;management" style="rounded=1;whiteSpace=wrap;html=1;" vertex="1" parent="1">
          <mxGeometry x="510" y="405" width="75" height="50" as="geometry" />
        </mxCell>
        <mxCell id="uSJiySgHFmY00MwDGNhw-6" value="bus-line&lt;br&gt;&lt;span style=&quot;color: rgba(0 , 0 , 0 , 0) ; font-family: monospace ; font-size: 0px&quot;&gt;%3CmxGraphModel%3E%3Croot%3E%3CmxCell%20id%3D%220%22%2F%3E%3CmxCell%20id%3D%221%22%20parent%3D%220%22%2F%3E%3CmxCell%20id%3D%222%22%20value%3D%22%22%20style%3D%22rounded%3D1%3BwhiteSpace%3Dwrap%3Bhtml%3D1%3B%22%20vertex%3D%221%22%20parent%3D%221%22%3E%3CmxGeometry%20x%3D%22500%22%20y%3D%22320%22%20width%3D%22200%22%20height%3D%22120%22%20as%3D%22geometry%22%2F%3E%3C%2FmxCell%3E%3CmxCell%20id%3D%223%22%20value%3D%22admin-services%22%20style%3D%22text%3Bhtml%3D1%3BstrokeColor%3Dnone%3BfillColor%3Dnone%3Balign%3Dcenter%3BverticalAlign%3Dmiddle%3BwhiteSpace%3Dwrap%3Brounded%3D0%3B%22%20vertex%3D%221%22%20parent%3D%221%22%3E%3CmxGeometry%20x%3D%22540%22%20y%3D%22330%22%20width%3D%22120%22%20height%3D%2220%22%20as%3D%22geometry%22%2F%3E%3C%2FmxCell%3E%3CmxCell%20id%3D%224%22%20value%3D%22bus-points%22%20style%3D%22rounded%3D1%3BwhiteSpace%3Dwrap%3Bhtml%3D1%3B%22%20vertex%3D%221%22%20parent%3D%221%22%3E%3CmxGeometry%20x%3D%22520%22%20y%3D%22360%22%20width%3D%2275%22%20height%3D%2250%22%20as%3D%22geometry%22%2F%3E%3C%2FmxCell%3E%3CmxCell%20id%3D%225%22%20value%3D%22bus-line%22%20style%3D%22rounded%3D1%3BwhiteSpace%3Dwrap%3Bhtml%3D1%3B%22%20vertex%3D%221%22%20parent%3D%221%22%3E%3CmxGeometry%20x%3D%22610%22%20y%3D%22360%22%20width%3D%2275%22%20height%3D%2250%22%20as%3D%22geometry%22%2F%3E%3C%2FmxCell%3E%3C%2Froot%3E%3C%2FmxGraphModel%3E&lt;/span&gt;management" style="rounded=1;whiteSpace=wrap;html=1;" vertex="1" parent="1">
          <mxGeometry x="600" y="405" width="75" height="50" as="geometry" />
        </mxCell>
        <mxCell id="uSJiySgHFmY00MwDGNhw-7" value="" style="rounded=1;whiteSpace=wrap;html=1;" vertex="1" parent="1">
          <mxGeometry x="214" y="320" width="200" height="190" as="geometry" />
        </mxCell>
        <mxCell id="uSJiySgHFmY00MwDGNhw-8" value="fe-services" style="text;html=1;strokeColor=none;fillColor=none;align=center;verticalAlign=middle;whiteSpace=wrap;rounded=0;" vertex="1" parent="1">
          <mxGeometry x="254" y="330" width="120" height="20" as="geometry" />
        </mxCell>
        <mxCell id="uSJiySgHFmY00MwDGNhw-9" value="bus-points" style="rounded=1;whiteSpace=wrap;html=1;" vertex="1" parent="1">
          <mxGeometry x="234" y="360" width="75" height="50" as="geometry" />
        </mxCell>
        <mxCell id="uSJiySgHFmY00MwDGNhw-10" value="bus-line" style="rounded=1;whiteSpace=wrap;html=1;" vertex="1" parent="1">
          <mxGeometry x="324" y="360" width="75" height="50" as="geometry" />
        </mxCell>
        <mxCell id="uSJiySgHFmY00MwDGNhw-11" value="bus-order" style="rounded=1;whiteSpace=wrap;html=1;" vertex="1" parent="1">
          <mxGeometry x="234" y="430" width="75" height="50" as="geometry" />
        </mxCell>
        <mxCell id="uSJiySgHFmY00MwDGNhw-12" value="bus-location" style="rounded=1;whiteSpace=wrap;html=1;" vertex="1" parent="1">
          <mxGeometry x="324" y="430" width="75" height="50" as="geometry" />
        </mxCell>
        <mxCell id="uSJiySgHFmY00MwDGNhw-13" value="minibus-app" style="verticalLabelPosition=bottom;verticalAlign=top;html=1;shadow=0;dashed=0;strokeWidth=1;shape=mxgraph.android.phone2;strokeColor=#c0c0c0;" vertex="1" parent="1">
          <mxGeometry x="60" y="365" width="50" height="100" as="geometry" />
        </mxCell>
        <mxCell id="uSJiySgHFmY00MwDGNhw-15" value="" style="shape=flexArrow;endArrow=classic;html=1;" edge="1" parent="1">
          <mxGeometry width="50" height="50" relative="1" as="geometry">
            <mxPoint x="140" y="414.5" as="sourcePoint" />
            <mxPoint x="190" y="414.5" as="targetPoint" />
          </mxGeometry>
        </mxCell>
        <mxCell id="uSJiySgHFmY00MwDGNhw-17" value="" style="shape=flexArrow;endArrow=classic;startArrow=classic;html=1;" edge="1" parent="1">
          <mxGeometry width="50" height="50" relative="1" as="geometry">
            <mxPoint x="390" y="580" as="sourcePoint" />
            <mxPoint x="370" y="520" as="targetPoint" />
          </mxGeometry>
        </mxCell>
        <mxCell id="uSJiySgHFmY00MwDGNhw-19" value="data" style="text;html=1;strokeColor=none;fillColor=none;align=center;verticalAlign=middle;whiteSpace=wrap;rounded=0;" vertex="1" parent="1">
          <mxGeometry x="401" y="610" width="40" height="20" as="geometry" />
        </mxCell>
        <mxCell id="uSJiySgHFmY00MwDGNhw-20" value="" style="shape=flexArrow;endArrow=classic;startArrow=classic;html=1;" edge="1" parent="1">
          <mxGeometry width="50" height="50" relative="1" as="geometry">
            <mxPoint x="457" y="580" as="sourcePoint" />
            <mxPoint x="487" y="520" as="targetPoint" />
          </mxGeometry>
        </mxCell>
        <mxCell id="uSJiySgHFmY00MwDGNhw-21" value="" style="rounded=1;whiteSpace=wrap;html=1;" vertex="1" parent="1">
          <mxGeometry x="214" y="120" width="200" height="120" as="geometry" />
        </mxCell>
        <mxCell id="uSJiySgHFmY00MwDGNhw-23" value="car" style="text;html=1;strokeColor=none;fillColor=none;align=center;verticalAlign=middle;whiteSpace=wrap;rounded=0;" vertex="1" parent="1">
          <mxGeometry x="254" y="130" width="120" height="20" as="geometry" />
        </mxCell>
        <mxCell id="uSJiySgHFmY00MwDGNhw-24" value="" style="shape=flexArrow;endArrow=classic;startArrow=classic;html=1;entryX=0.4;entryY=1;entryDx=0;entryDy=0;entryPerimeter=0;" edge="1" parent="1">
          <mxGeometry width="50" height="50" relative="1" as="geometry">
            <mxPoint x="314" y="310" as="sourcePoint" />
            <mxPoint x="314" y="250" as="targetPoint" />
            <Array as="points">
              <mxPoint x="314" y="290" />
            </Array>
          </mxGeometry>
        </mxCell>
        <mxCell id="uSJiySgHFmY00MwDGNhw-25" value="ticket scan" style="rounded=1;whiteSpace=wrap;html=1;" vertex="1" parent="1">
          <mxGeometry x="234" y="160" width="75" height="50" as="geometry" />
        </mxCell>
        <mxCell id="uSJiySgHFmY00MwDGNhw-26" value="station stop&lt;br&gt;judgement" style="rounded=1;whiteSpace=wrap;html=1;" vertex="1" parent="1">
          <mxGeometry x="326" y="160" width="75" height="50" as="geometry" />
        </mxCell>
      </root>
    </mxGraphModel>
  </diagram>
</mxfile>
